<svg width="512" height="512" viewBox="0 0 512 512" fill="none" xmlns="http://www.w3.org/2000/svg">
<g clip-path="url(#clip0_3_33)">
<path d="M78.776 220.144L117.576 152.248C123.174 142.452 131.262 134.309 141.02 128.646C150.779 122.983 161.861 120 173.144 120H306.856C318.135 120.004 329.212 122.989 338.966 128.652C348.72 134.315 356.804 142.455 362.4 152.248L400.44 218.808C402.795 222.93 406.038 226.476 409.933 229.189C413.828 231.902 418.278 233.715 422.96 234.496L450.496 239.088C465.444 241.573 479.026 249.282 488.823 260.842C498.621 272.401 503.999 287.063 504 302.216V328C504 336.487 500.629 344.626 494.627 350.627C488.626 356.629 480.487 360 472 360H40C31.5131 360 23.3737 356.629 17.3726 350.627C11.3714 344.626 8 336.487 8 328V272.984C8.00108 265.848 10.3873 258.917 14.7793 253.293C19.1713 247.669 25.3171 243.674 32.24 241.944L58.752 235.312C62.9402 234.265 66.8734 232.382 70.3146 229.775C73.7558 227.168 76.6341 223.892 78.776 220.144Z" fill="#FF938D"/>
<path d="M496 336H119.016C95.9379 336 73.8051 326.832 57.4864 310.514C41.1677 294.195 32 272.062 32 248.984C32.0328 246.556 32.3442 244.141 32.928 241.784L32.248 241.952C25.325 243.681 19.1783 247.673 14.7849 253.296C10.3915 258.919 8.00331 265.848 8 272.984V328C8 336.487 11.3714 344.626 17.3726 350.627C23.3737 356.629 31.5131 360 40 360H472C479.237 359.987 486.255 357.521 491.91 353.005C497.565 348.49 501.522 342.19 503.136 335.136C500.798 335.693 498.404 335.983 496 336Z" fill="#F27875"/>
<path d="M8 272.96V296H32L40 264H9.28C8.44651 266.914 8.01585 269.929 8 272.96Z" fill="#A7D0E1"/>
<path d="M36.728 277.088C35.2708 272.82 34.1526 268.444 33.384 264H9.384C9.15492 264.766 8.95477 265.539 8.784 266.32C8.664 266.88 8.512 267.44 8.424 268.008C8.15342 269.653 8.01165 271.317 8 272.984V296H32L36.728 277.088Z" fill="#80BBCE"/>
<path d="M309.88 144H256V224H376L337.32 159.536C334.477 154.798 330.455 150.876 325.646 148.153C320.838 145.431 315.406 144 309.88 144Z" fill="#A7D0E1"/>
<path d="M328.552 184C327.169 184.003 325.809 183.646 324.604 182.966C323.4 182.286 322.392 181.306 321.68 180.12L316.744 171.88C315.652 170.061 315.328 167.882 315.843 165.824C316.357 163.765 317.669 161.996 319.488 160.904C321.307 159.812 323.486 159.488 325.544 160.003C327.603 160.517 329.372 161.829 330.464 163.648L335.4 171.88C336.129 173.093 336.523 174.478 336.542 175.893C336.561 177.308 336.204 178.703 335.508 179.935C334.811 181.168 333.801 182.193 332.579 182.907C331.357 183.621 329.967 183.998 328.552 184Z" fill="white"/>
<path d="M280 168V144H256V224H376L361.6 200H312C303.513 200 295.374 196.629 289.373 190.627C283.371 184.626 280 176.487 280 168Z" fill="#80BBCE"/>
<path d="M104 224H224V144H170.12C164.594 144 159.162 145.431 154.354 148.153C149.545 150.876 145.523 154.798 142.68 159.536L104 224Z" fill="#A7D0E1"/>
<path d="M173.08 151.536L177.6 144H170.12C164.594 144 159.162 145.431 154.354 148.153C149.545 150.876 145.523 154.798 142.68 159.536L104 224H224V200H200.52C194.857 200 189.296 198.497 184.403 195.645C179.511 192.793 175.463 188.694 172.673 183.766C169.883 178.839 168.451 173.259 168.522 167.596C168.594 161.934 170.166 156.392 173.08 151.536Z" fill="#80BBCE"/>
<path d="M456 264C455.995 268.204 456.819 272.367 458.425 276.252C460.031 280.137 462.388 283.667 465.361 286.639C468.333 289.612 471.863 291.969 475.748 293.575C479.633 295.181 483.796 296.005 488 296H503.68C502.595 284.376 498.272 273.289 491.2 264H456Z" fill="#A7D0E1"/>
<path d="M424 352C424.039 345.335 422.689 338.735 420.036 332.62C417.383 326.505 413.486 321.01 408.593 316.484C403.7 311.958 397.918 308.501 391.615 306.333C385.312 304.164 378.627 303.333 371.985 303.89C365.343 304.448 358.89 306.383 353.037 309.572C347.184 312.761 342.059 317.133 337.989 322.412C333.919 327.69 330.993 333.759 329.397 340.23C327.801 346.702 327.571 353.435 328.72 360H423.28C423.743 357.358 423.984 354.682 424 352Z" fill="#F27875"/>
<path d="M392 392C418.51 392 440 370.51 440 344C440 317.49 418.51 296 392 296C365.49 296 344 317.49 344 344C344 370.51 365.49 392 392 392Z" fill="#7A838B"/>
<path d="M392 360C400.837 360 408 352.837 408 344C408 335.163 400.837 328 392 328C383.163 328 376 335.163 376 344C376 352.837 383.163 360 392 360Z" fill="#A7D0E1"/>
<path d="M120 392C146.51 392 168 370.51 168 344C168 317.49 146.51 296 120 296C93.4903 296 72 317.49 72 344C72 370.51 93.4903 392 120 392Z" fill="#7A838B"/>
<path d="M144 368C135.978 368.009 128.082 366.006 121.036 362.173C113.989 358.34 108.016 352.801 103.665 346.061C99.3143 339.322 96.7237 331.599 96.1308 323.599C95.538 315.6 96.9619 307.579 100.272 300.272C93.1813 303.458 86.9705 308.318 82.1736 314.435C77.3766 320.552 74.1371 327.743 72.7335 335.389C71.3299 343.034 71.8042 350.907 74.1157 358.328C76.4272 365.75 80.5067 372.5 86.0034 377.997C91.5001 383.493 98.2496 387.573 105.672 389.884C113.093 392.196 120.966 392.67 128.612 391.267C136.257 389.863 143.448 386.623 149.565 381.826C155.682 377.029 160.542 370.819 163.728 363.728C157.531 366.54 150.805 367.997 144 368ZM414.936 368C406.914 368.011 399.017 366.008 391.969 362.176C384.921 358.344 378.948 352.804 374.596 346.065C370.244 339.325 367.652 331.602 367.059 323.601C366.466 315.601 367.89 307.58 371.2 300.272C364.109 303.458 357.899 308.318 353.102 314.435C348.305 320.552 345.065 327.743 343.661 335.389C342.258 343.034 342.732 350.907 345.044 358.328C347.355 365.75 351.435 372.5 356.931 377.997C362.428 383.493 369.178 387.573 376.6 389.884C384.021 392.196 391.894 392.67 399.539 391.267C407.185 389.863 414.376 386.623 420.493 381.826C426.61 377.029 431.47 370.819 434.656 363.728C428.462 366.539 421.738 367.996 414.936 368Z" fill="#5D6972"/>
<path d="M120 360C128.837 360 136 352.837 136 344C136 335.163 128.837 328 120 328C111.163 328 104 335.163 104 344C104 352.837 111.163 360 120 360Z" fill="#A7D0E1"/>
<path d="M451.84 231.2L424.296 226.616C420.783 226.035 417.443 224.677 414.521 222.641C411.6 220.606 409.169 217.943 407.408 214.848L369.368 148.288C363.06 137.276 353.959 128.123 342.984 121.752C332.008 115.38 319.547 112.017 306.856 112H173.144C160.454 112.016 147.993 115.378 137.018 121.748C126.042 128.118 116.941 137.27 110.632 148.28L71.832 216.176C70.2182 218.984 68.0555 221.438 65.473 223.393C62.8904 225.347 59.9408 226.762 56.8 227.552L30.288 234.176C23.687 235.828 17.6186 239.142 12.6602 243.802C7.70172 248.463 4.01818 254.314 1.96 260.8C1.872 261.008 1.864 261.256 1.792 261.472C0.633776 265.201 0.0299879 269.08 0 272.984L0 328C0.0127029 338.605 4.23106 348.772 11.7298 356.27C19.2285 363.769 29.3952 367.987 40 368H69.48C74.0046 377.572 81.1553 385.661 90.0993 391.326C99.0434 396.991 109.413 399.999 120 399.999C130.587 399.999 140.957 396.991 149.901 391.326C158.845 385.661 165.995 377.572 170.52 368H341.48C346.005 377.572 353.155 385.661 362.099 391.326C371.043 396.991 381.413 399.999 392 399.999C402.587 399.999 412.957 396.991 421.901 391.326C430.845 385.661 437.995 377.572 442.52 368H472C482.605 367.987 492.772 363.769 500.27 356.27C507.769 348.772 511.987 338.605 512 328V302.216C512.043 285.162 506.012 268.65 494.989 255.637C483.965 242.624 468.669 233.962 451.84 231.2ZM487.152 272C490.316 276.932 492.684 282.331 494.168 288H488C481.653 287.998 475.564 285.491 471.056 281.024C468.522 278.47 466.583 275.389 465.376 272H487.152ZM16.08 272H29.752L25.752 288H16V272.984C16 272.648 16.072 272.328 16.08 272ZM120 384C112.089 384 104.355 381.654 97.7772 377.259C91.1992 372.864 86.0723 366.616 83.0448 359.307C80.0173 351.998 79.2252 343.956 80.7686 336.196C82.312 328.437 86.1216 321.31 91.7157 315.716C97.3098 310.122 104.437 306.312 112.196 304.769C119.956 303.225 127.998 304.017 135.307 307.045C142.616 310.072 148.864 315.199 153.259 321.777C157.654 328.355 160 336.089 160 344C159.987 354.605 155.769 364.772 148.27 372.27C140.772 379.769 130.605 383.987 120 384ZM392 384C384.089 384 376.355 381.654 369.777 377.259C363.199 372.864 358.072 366.616 355.045 359.307C352.017 351.998 351.225 343.956 352.769 336.196C354.312 328.437 358.122 321.31 363.716 315.716C369.31 310.122 376.437 306.312 384.196 304.769C391.956 303.225 399.998 304.017 407.307 307.045C414.616 310.072 420.864 315.199 425.259 321.777C429.654 328.355 432 336.089 432 344C431.987 354.605 427.769 364.772 420.27 372.27C412.772 379.769 402.605 383.987 392 384ZM472 352H447.36C448.576 344.024 448.055 335.88 445.831 328.125C443.608 320.37 439.735 313.186 434.478 307.066C429.221 300.947 422.703 296.035 415.372 292.668C408.04 289.301 400.068 287.558 392 287.558C383.932 287.558 375.96 289.301 368.628 292.668C361.297 296.035 354.779 300.947 349.522 307.066C344.265 313.186 340.392 320.37 338.169 328.125C335.945 335.88 335.424 344.024 336.64 352H175.36C176.576 344.024 176.055 335.88 173.831 328.125C171.608 320.37 167.735 313.186 162.478 307.066C157.221 300.947 150.703 296.035 143.372 292.668C136.04 289.301 128.068 287.558 120 287.558C111.932 287.558 103.96 289.301 96.6282 292.668C89.2966 296.035 82.7792 300.947 77.522 307.066C72.2648 313.186 68.3919 320.37 66.1686 328.125C63.9452 335.88 63.4238 344.024 64.64 352H40C33.6348 352 27.5303 349.471 23.0294 344.971C18.5286 340.47 16 334.365 16 328V304H32C33.7834 304 35.5157 303.404 36.9217 302.307C38.3276 301.21 39.3266 299.674 39.76 297.944L47.76 265.944C48.0555 264.764 48.0782 263.533 47.8264 262.343C47.5745 261.154 47.0548 260.037 46.3067 259.078C45.5585 258.12 44.6017 257.344 43.5089 256.811C42.4161 256.277 41.216 256 40 256H23.112C26.1619 252.938 29.986 250.762 34.176 249.704L60.696 243.072C65.9255 241.752 70.836 239.393 75.135 236.135C79.4341 232.878 83.0338 228.789 85.72 224.112L124.52 156.216C129.428 147.653 136.508 140.535 145.045 135.582C153.582 130.628 163.274 128.013 173.144 128H306.856C316.726 128.013 326.418 130.628 334.955 135.582C343.492 140.535 350.572 147.653 355.48 156.216L393.512 222.776C396.446 227.938 400.496 232.379 405.367 235.774C410.238 239.17 415.806 241.433 421.664 242.4L449.208 246.992C457.262 248.325 464.929 251.399 471.672 256H456C453.878 256 451.843 256.843 450.343 258.343C448.843 259.843 448 261.878 448 264C447.995 269.254 449.026 274.458 451.034 279.314C453.042 284.169 455.989 288.581 459.704 292.296C463.419 296.011 467.831 298.958 472.686 300.966C477.542 302.974 482.746 304.005 488 304H496V328C496 334.365 493.471 340.47 488.971 344.971C484.47 349.471 478.365 352 472 352Z" fill="black"/>
<path d="M363.664 187.88C362.571 186.061 360.801 184.75 358.741 184.236C356.682 183.722 354.503 184.047 352.684 185.14C350.865 186.233 349.554 188.003 349.04 190.063C348.526 192.122 348.851 194.301 349.944 196.12L361.872 216H264V152H309.88C314.023 152.011 318.094 153.09 321.699 155.131C325.304 157.173 328.323 160.109 330.464 163.656L335.536 172.12C336.629 173.939 338.399 175.25 340.459 175.764C342.518 176.278 344.697 175.953 346.516 174.86C348.335 173.767 349.646 171.997 350.16 169.937C350.674 167.878 350.349 165.699 349.256 163.88L344.176 155.416C340.608 149.506 335.579 144.616 329.572 141.215C323.565 137.814 316.783 136.018 309.88 136H256C253.878 136 251.843 136.843 250.343 138.343C248.843 139.843 248 141.878 248 144V224C248 226.122 248.843 228.157 250.343 229.657C251.843 231.157 253.878 232 256 232H376C377.416 232 378.806 231.624 380.03 230.91C381.253 230.197 382.264 229.171 382.962 227.939C383.659 226.706 384.016 225.311 383.998 223.895C383.979 222.479 383.585 221.094 382.856 219.88L363.664 187.88ZM224 136H170.12C163.217 136.018 156.435 137.814 150.428 141.215C144.421 144.616 139.392 149.506 135.824 155.416L97.144 219.88C96.4148 221.094 96.0208 222.479 96.0022 223.895C95.9836 225.311 96.3412 226.706 97.0384 227.939C97.7356 229.171 98.7473 230.197 99.9704 230.91C101.193 231.624 102.584 232 104 232H224C226.122 232 228.157 231.157 229.657 229.657C231.157 228.157 232 226.122 232 224V144C232 141.878 231.157 139.843 229.657 138.343C228.157 136.843 226.122 136 224 136ZM216 216H118.128L149.536 163.656C151.677 160.109 154.696 157.173 158.301 155.131C161.906 153.09 165.977 152.011 170.12 152H216V216ZM272 240H256C253.878 240 251.843 240.843 250.343 242.343C248.843 243.843 248 245.878 248 248C248 250.122 248.843 252.157 250.343 253.657C251.843 255.157 253.878 256 256 256H272C274.122 256 276.157 255.157 277.657 253.657C279.157 252.157 280 250.122 280 248C280 245.878 279.157 243.843 277.657 242.343C276.157 240.843 274.122 240 272 240ZM120 240H104C101.878 240 99.8434 240.843 98.3431 242.343C96.8429 243.843 96 245.878 96 248C96 250.122 96.8429 252.157 98.3431 253.657C99.8434 255.157 101.878 256 104 256H120C122.122 256 124.157 255.157 125.657 253.657C127.157 252.157 128 250.122 128 248C128 245.878 127.157 243.843 125.657 242.343C124.157 240.843 122.122 240 120 240ZM392 320C387.253 320 382.613 321.408 378.666 324.045C374.72 326.682 371.643 330.43 369.827 334.816C368.01 339.201 367.535 344.027 368.461 348.682C369.387 353.338 371.673 357.614 375.029 360.971C378.386 364.327 382.662 366.613 387.318 367.539C391.973 368.465 396.799 367.99 401.184 366.173C405.57 364.357 409.318 361.28 411.955 357.334C414.592 353.387 416 348.747 416 344C416 337.635 413.471 331.53 408.971 327.029C404.47 322.529 398.365 320 392 320ZM392 352C390.418 352 388.871 351.531 387.555 350.652C386.24 349.773 385.214 348.523 384.609 347.061C384.003 345.6 383.845 343.991 384.154 342.439C384.462 340.887 385.224 339.462 386.343 338.343C387.462 337.224 388.887 336.462 390.439 336.154C391.991 335.845 393.6 336.003 395.061 336.609C396.523 337.214 397.773 338.24 398.652 339.555C399.531 340.871 400 342.418 400 344C400 346.122 399.157 348.157 397.657 349.657C396.157 351.157 394.122 352 392 352ZM120 320C115.253 320 110.613 321.408 106.666 324.045C102.72 326.682 99.6434 330.43 97.8269 334.816C96.0104 339.201 95.5351 344.027 96.4611 348.682C97.3872 353.338 99.673 357.614 103.029 360.971C106.386 364.327 110.662 366.613 115.318 367.539C119.973 368.465 124.799 367.99 129.184 366.173C133.57 364.357 137.318 361.28 139.955 357.334C142.592 353.387 144 348.747 144 344C144 337.635 141.471 331.53 136.971 327.029C132.47 322.529 126.365 320 120 320ZM120 352C118.418 352 116.871 351.531 115.555 350.652C114.24 349.773 113.214 348.523 112.609 347.061C112.003 345.6 111.845 343.991 112.154 342.439C112.462 340.887 113.224 339.462 114.343 338.343C115.462 337.224 116.887 336.462 118.439 336.154C119.991 335.845 121.6 336.003 123.061 336.609C124.523 337.214 125.773 338.24 126.652 339.555C127.531 340.871 128 342.418 128 344C128 346.122 127.157 348.157 125.657 349.657C124.157 351.157 122.122 352 120 352Z" fill="black"/>
</g>
<defs>
<clipPath id="clip0_3_33">
<rect width="512" height="512" fill="white"/>
</clipPath>
</defs>
</svg>
